<svg width="101" height="100" viewBox="0 0 101 100" fill="none" xmlns="http://www.w3.org/2000/svg">
<path d="M86.7446 15.6631C87.032 22.1154 81.8987 28.1316 75.4939 28.8005C84.9299 39.3767 85.4377 57.8259 76.5332 68.9191C82.9714 69.296 88.4197 75.0359 88.3921 81.5237C104.506 63.2146 103.788 33.1652 86.7446 15.6631ZM80.6705 74.8583C79.3889 73.9021 77.8653 73.3257 76.273 73.1945C74.6808 73.0634 73.0838 73.3828 71.6636 74.1164C52.1028 92.0506 17.5358 76.502 18.4254 49.5109C17.6007 23.3545 50.3254 7.47246 70.2819 23.7946C79.4502 28.1947 87.282 15.0179 78.9286 9.10033C47.9182 -14.3134 0.234536 10.4204 1.323 49.5267C0.777783 76.0639 24.0606 99.4875 50.5439 99.0258C61.9915 99.521 94.6394 89.5782 80.6705 74.8583Z" fill="white"/>
<path d="M80.8061 88.5322C49.6776 114.493 -1.76354 88.8045 1.09047 47.5533C1.41721 9.32306 48.8175 -13.7591 78.9322 9.10207C87.2738 15.0354 79.4696 28.1807 70.2836 23.7943C49.3961 7.26504 16.0711 23.9403 18.2027 51.2747C19.1987 77.8475 52.0041 91.2729 71.6614 74.1221C80.6919 69.4062 88.9311 82.2457 80.8061 88.5322Z" fill="white"/>
<ellipse cx="50.4544" cy="49.6156" rx="19.2825" ry="19.3417" fill="white"/>
</svg>
