<svg width="256" height="261" viewBox="0 0 256 261" fill="none" xmlns="http://www.w3.org/2000/svg">
<ellipse cx="134" cy="157.5" rx="101" ry="103.5" fill="#FAFAFC"/>
<mask id="mask0" style="mask-type:alpha" maskUnits="userSpaceOnUse" x="33" y="35" width="201" height="226">
<path d="M234 159.689C234 215.641 189.005 261 133.5 261C77.9954 261 33 215.641 33 159.689C33 123.272 32.855 92.301 62.0787 48.1777C77.7567 24.5063 116.416 39.9494 135.796 39.9494C150.43 39.9494 185.45 30.0759 197.779 44.835C232.213 86.0551 234 118.488 234 159.689Z" fill="#FAFAFC"/>
</mask>
<g mask="url(#mask0)">
<rect x="60" y="42.0001" width="143" height="227" rx="16.4193" fill="url(#paint0_linear)"/>
<rect x="73" y="58" width="116" height="208" rx="16.4193" fill="#F2F2F5"/>
<path d="M151.495 142.856C151.657 146.504 148.755 149.906 145.134 150.284C150.469 156.264 150.756 166.695 145.721 172.967C149.362 173.181 152.442 176.426 152.426 180.094C161.538 169.742 161.131 152.752 151.495 142.856ZM148.061 176.326C147.336 175.785 146.475 175.459 145.574 175.385C144.674 175.311 143.771 175.491 142.968 175.906C131.908 186.046 112.364 177.255 112.867 161.994C112.4 147.205 130.903 138.225 142.187 147.454C147.371 149.942 151.799 142.491 147.076 139.145C129.542 125.907 102.581 139.892 103.197 162.003C102.889 177.007 116.053 190.251 131.027 189.99C137.499 190.27 155.959 184.648 148.061 176.326Z" fill="#E3E4EB"/>
<path d="M148.136 184.057C130.536 198.735 101.451 184.211 103.064 160.887C103.249 139.271 130.05 126.22 147.077 139.146C151.793 142.501 147.381 149.934 142.187 147.453C130.377 138.108 111.535 147.536 112.74 162.991C113.303 178.016 131.851 185.606 142.966 175.909C148.072 173.243 152.73 180.502 148.136 184.057Z" fill="#E3E4EB"/>
<ellipse cx="130.977" cy="162.053" rx="10.9025" ry="10.936" fill="#E3E4EB"/>
<rect x="122.538" y="49.2506" width="18.0482" height="1.53908" rx="0.769539" fill="#F2F2F5"/>
<ellipse cx="144.861" cy="49.7636" rx="1.42486" ry="1.53908" fill="#F2F2F5"/>
</g>
<path d="M232.453 147.5C232.453 204.372 187.466 250.453 132 250.453C76.534 250.453 31.5473 204.372 31.5473 147.5C31.5473 90.6281 76.534 44.5473 132 44.5473C187.466 44.5473 232.453 90.6281 232.453 147.5Z" stroke="#E3E4EB" stroke-width="1.09462"/>
<path opacity="0.5" d="M228.215 55.9199L229.938 68.6801L241.751 70.5411L229.938 72.4021L228.215 85.1623L226.492 72.4021L214.679 70.5411L226.492 68.6801L228.215 55.9199Z" fill="#E3E4EB"/>
<path opacity="0.5" d="M184.044 8.2084L185.163 16.4914L192.831 17.6994L185.163 18.9074L184.044 27.1904L182.926 18.9074L175.258 17.6994L182.926 16.4914L184.044 8.2084Z" fill="#E3E4EB"/>
<path opacity="0.5" d="M249.588 124.152L250.404 130.197L256 131.078L250.404 131.96L249.588 138.004L248.772 131.96L243.176 131.078L248.772 130.197L249.588 124.152Z" fill="#E3E4EB"/>
<path opacity="0.5" d="M120.401 15.3908L121.217 21.4351L126.813 22.3166L121.217 23.1981L120.401 29.2425L119.585 23.1981L113.989 22.3166L119.585 21.4351L120.401 15.3908Z" fill="#E3E4EB"/>
<path opacity="0.5" d="M23.9851 75.4149L25.1035 83.6978L32.7718 84.9058L25.1035 86.1138L23.9851 94.3968L22.8668 86.1138L15.1985 84.9058L22.8668 83.6978L23.9851 75.4149Z" fill="#E3E4EB"/>
<path opacity="0.5" d="M239.139 191.872L240.499 201.946L249.826 203.415L240.499 204.884L239.139 214.958L237.779 204.884L228.453 203.415L237.779 201.946L239.139 191.872Z" fill="#E3E4EB"/>
<path opacity="0.5" d="M52.0072 0L53.7906 13.208L66.0184 15.1343L53.7906 17.0605L52.0072 30.2685L50.2239 17.0605L37.9961 15.1343L50.2239 13.208L52.0072 0Z" fill="#E3E4EB"/>
<path opacity="0.5" d="M14.0111 143.647L15.7945 156.855L28.0223 158.782L15.7945 160.708L14.0111 173.916L12.2278 160.708L0 158.782L12.2278 156.855L14.0111 143.647Z" fill="#E3E4EB"/>
<defs>
<linearGradient id="paint0_linear" x1="131.5" y1="42.0001" x2="131.5" y2="269" gradientUnits="userSpaceOnUse">
<stop offset="0.487055" stop-color="#E3E4EB"/>
<stop offset="1" stop-color="#F8F9FC"/>
</linearGradient>
</defs>
</svg>
